# xmcd
#
# Track frame offsets: 
#        150
#        18653
#        47725
#        58518
#        95026
#        113546
#        141528
#        166656
#        184012
#
# Disc length: 2610 seconds
#
# Revision: 0
# Processed by: cddbd v1.5.2PL0 Copyright (c) Steve Scherf et al.
# Submitted via: ExactAudioCopy v0.99pb4
#
DISCID=760a3009
DTITLE=Rolando Boldrin - Historias Cantadas E Faladas - Disc 1 - Poema
DTITLE=s Antológicos
DYEAR=2008
DGENRE=MPB
TTITLE0=Chico Beleza
TTITLE1=Resposta Do Jeca Tatu
TTITLE2=A Flor Do Maracujá
TTITLE3=Pot Pourri: Crônica Do Natal Caipira - Milenium - Uma Canção
TTITLE4=Homem Não Chora
TTITLE5=Meu Melhor Amigo
TTITLE6=O Sem Rumo
TTITLE7=Jangadeiro Abandonado
TTITLE8=Final De Ato
EXTD=
EXTT0=
EXTT1=
EXTT2=
EXTT3=
EXTT4=
EXTT5=
EXTT6=
EXTT7=
EXTT8=
PLAYORDER=
